<?xml version="1.0" standalone="no"?>
<!DOCTYPE svg PUBLIC "-//W3C//DTD SVG 20010904//EN"
 "http://www.w3.org/TR/2001/REC-SVG-20010904/DTD/svg10.dtd">
<svg version="1.0" xmlns="http://www.w3.org/2000/svg"
 width="1600.000000pt" height="1600.000000pt" viewBox="0 0 1600.000000 1600.000000"
 preserveAspectRatio="xMidYMid meet">
<metadata>
Created by potrace 1.16, written by Peter Selinger 2001-2019
</metadata>
<g transform="translate(0.000000,1600.000000) scale(0.100000,-0.100000)"
fill="#000000" stroke="none">
<path d="M0 8000 l0 -8000 8000 0 8000 0 0 8000 0 8000 -8000 0 -8000 0 0
-8000z m1405 645 l0 -40 -195 -5 -195 -5 0 -165 0 -165 175 -5 175 -5 3 -37 3
-38 -178 -2 -178 -3 0 -170 0 -170 198 -3 197 -2 0 -40 0 -40 -250 0 -250 0 0
463 c0 255 3 467 7 471 4 3 115 5 247 4 l241 -3 0 -40z m755 25 c0 -5 -23 -46
-51 -92 -88 -142 -219 -360 -219 -364 0 -2 61 -104 135 -225 74 -122 135 -226
135 -230 0 -5 -24 -9 -53 -9 -49 0 -54 2 -71 33 -11 17 -47 77 -81 132 -34 55
-77 126 -97 158 l-36 58 -58 -103 c-31 -57 -80 -141 -109 -188 l-51 -85 -58
-3 -59 -3 15 23 c8 13 72 119 142 236 l128 212 -58 93 c-31 50 -82 133 -112
182 -30 50 -68 110 -83 135 l-29 45 56 3 c47 3 58 0 74 -20 11 -13 19 -26 20
-30 0 -8 177 -299 190 -311 4 -5 27 24 51 65 95 165 173 293 180 298 12 8 99
-1 99 -10z m1992 -23 c94 -46 159 -111 203 -202 136 -283 1 -616 -280 -690
-74 -19 -184 -19 -255 -1 -293 78 -425 409 -280 701 34 67 57 96 115 141 97
76 160 95 307 91 111 -3 119 -5 190 -40z m1626 -4 l3 -43 -198 -2 -198 -3 0
-165 0 -165 178 -3 177 -2 0 -40 0 -40 -177 -2 -178 -3 -3 -172 -2 -173 200 0
200 0 0 -40 0 -40 -250 0 -250 0 0 463 c0 255 3 467 7 471 4 3 115 5 247 4
l241 -3 3 -42z m1084 30 c16 -14 18 -34 18 -172 l0 -156 200 -200 c209 -209
224 -230 184 -269 -36 -36 -58 -22 -224 145 l-160 162 -2 -209 -3 -209 -52 -3
-53 -3 0 213 0 212 -163 -162 c-170 -169 -189 -181 -229 -145 -10 9 -18 25
-18 36 0 13 74 95 205 227 l205 207 0 159 c0 111 4 164 12 172 17 17 58 15 80
-5z m-4172 -4 c66 -14 128 -62 162 -124 23 -41 28 -63 28 -120 0 -116 -29
-180 -104 -229 -69 -45 -107 -52 -283 -54 l-113 -2 0 -195 0 -195 -50 0 -50 0
0 465 0 465 180 0 c98 0 202 -5 230 -11z m410 -414 l0 -425 170 0 170 0 0 -40
0 -40 -220 0 -220 0 0 465 0 465 50 0 50 0 0 -425z m1880 401 c69 -36 103 -69
128 -124 69 -152 -1 -329 -150 -374 -21 -6 -38 -16 -38 -21 0 -8 163 -282 218
-364 l14 -23 -63 0 -64 0 -115 196 -115 195 -80 -3 -80 -3 -3 -192 -2 -193
-50 0 -50 0 0 466 0 466 208 -4 c178 -3 212 -6 242 -22z m8764 -875 c2 -3 -55
-56 -126 -116 -72 -61 -144 -122 -159 -137 -28 -27 -31 -28 -144 -28 l-116 0
73 87 c40 49 88 105 107 125 19 21 40 47 48 58 14 20 23 21 164 19 82 -1 151
-4 153 -8z m-12024 -405 c188 -34 339 -128 401 -248 22 -42 60 -168 54 -178
-2 -3 -57 -4 -123 -2 l-121 3 -11 34 c-14 43 -85 117 -137 143 -95 49 -279 67
-405 41 -67 -14 -184 -70 -223 -107 -88 -81 -127 -235 -93 -370 45 -183 248
-295 509 -279 116 7 191 33 262 91 29 23 63 63 77 89 l25 47 119 0 119 0 -6
-45 c-15 -103 -110 -237 -210 -294 -162 -92 -413 -121 -657 -75 -237 44 -397
169 -468 365 -23 66 -26 89 -27 204 0 100 5 143 19 185 71 211 222 335 475
390 105 23 312 25 421 6z m4040 -1 c195 -41 315 -159 328 -323 l5 -63 -119 3
-118 3 -9 41 c-10 54 -60 104 -129 129 -76 29 -244 27 -309 -2 -91 -41 -116
-128 -55 -189 23 -22 138 -54 287 -79 288 -48 403 -100 456 -205 25 -49 28
-65 28 -150 -1 -73 -5 -103 -19 -130 -31 -57 -62 -94 -105 -119 -22 -14 -37
-29 -34 -35 3 -5 2 -6 -3 -3 -6 3 -36 -3 -69 -14 -190 -63 -476 -42 -633 46
-24 14 -49 22 -55 18 -5 -3 -7 -1 -4 4 4 6 -13 26 -36 44 -61 46 -117 143
-124 213 l-6 56 119 0 119 0 20 -46 c42 -97 148 -153 305 -161 132 -7 200 8
250 56 35 34 40 43 40 84 0 35 -5 51 -22 68 -38 35 -70 44 -306 85 -276 47
-418 120 -469 241 -22 53 -17 179 9 232 47 97 146 165 283 194 93 20 285 21
375 2z m-2461 -16 c142 -25 243 -95 281 -197 30 -78 28 -204 -4 -275 -27 -62
-64 -94 -155 -135 l-64 -29 44 -6 c85 -12 147 -58 167 -125 7 -23 12 -106 12
-199 0 -188 15 -171 -145 -163 l-100 5 0 160 c0 190 -5 203 -87 231 -46 16
-89 19 -333 19 l-280 0 -3 -207 -2 -208 -120 0 -120 0 0 570 0 570 422 0 c267
0 445 -4 487 -11z m746 -66 c27 -42 56 -88 63 -102 7 -14 19 -33 26 -41 7 -8
32 -49 57 -90 24 -41 48 -82 54 -91 5 -9 28 -46 50 -83 22 -36 43 -66 47 -66
4 0 82 124 174 275 l167 275 139 0 c138 0 139 0 127 -21 -10 -20 -69 -113
-167 -264 -76 -118 -147 -227 -183 -285 -20 -30 -59 -91 -87 -135 l-52 -80 0
-177 0 -178 -122 0 -123 0 3 176 3 176 -40 62 c-249 388 -443 691 -451 707
-10 18 -6 19 127 19 l138 0 50 -77z m3395 -23 l0 -100 -240 0 -240 0 0 -470 0
-471 -122 3 -123 3 0 468 0 467 -242 0 -243 0 0 100 0 100 605 0 605 0 0 -100z
m790 90 c0 -6 23 -58 51 -118 71 -149 306 -644 369 -777 28 -60 61 -128 72
-150 11 -22 24 -50 29 -62 l9 -23 -133 0 -132 0 -54 120 -54 119 -294 3 -293
3 -30 -63 c-16 -35 -30 -66 -30 -69 0 -3 -12 -30 -27 -59 l-27 -53 -128 -3
c-70 -2 -128 0 -128 5 0 4 34 81 76 170 42 89 91 194 109 232 59 128 107 229
157 335 101 212 178 381 178 390 0 6 55 10 140 10 87 0 140 -4 140 -10z m922
-457 l3 -468 378 -3 377 -2 0 -100 0 -100 -502 0 -503 0 3 570 2 570 120 0
120 0 2 -467z m1093 400 c15 -38 39 -92 52 -121 12 -29 23 -57 23 -63 0 -6 5
-7 12 -3 6 4 8 3 5 -3 -7 -10 1 -32 45 -133 10 -25 23 -54 27 -65 56 -139 76
-186 91 -220 10 -22 37 -86 61 -142 23 -57 44 -102 45 -100 1 1 56 135 123
297 67 162 128 309 136 325 7 17 25 59 40 95 15 36 35 83 45 105 10 23 22 53
25 68 l7 27 134 0 c123 0 133 -1 127 -17 -3 -10 -22 -56 -43 -103 -55 -125
-203 -463 -275 -630 -35 -80 -76 -174 -92 -210 -16 -36 -40 -91 -53 -122 l-24
-58 -151 0 -152 0 -12 28 c-7 15 -42 93 -77 175 -36 81 -75 171 -88 200 -48
105 -68 151 -128 285 -71 161 -164 373 -184 420 l-14 32 133 0 134 0 28 -67z
m2285 -33 l0 -100 -440 0 -441 0 3 -137 3 -138 358 -3 357 -2 0 -95 0 -95
-357 -2 -358 -3 0 -130 0 -130 437 -3 437 -2 3 -100 3 -100 -562 0 -563 0 0
570 0 570 560 0 560 0 0 -100z m1350 0 l0 -100 -440 0 -440 0 0 -140 0 -140
363 0 362 0 -3 -95 -3 -95 -357 -2 -357 -3 -3 -132 -3 -133 440 0 440 0 3
-100 3 -100 -562 0 -563 0 0 570 0 570 560 0 560 0 0 -100z m424 83 c7 -22 22
-48 109 -185 37 -59 67 -112 67 -118 0 -5 3 -10 8 -10 4 0 36 -49 72 -110 36
-60 68 -110 72 -110 5 0 182 282 243 389 6 9 30 49 54 89 l43 72 140 0 140 0
-23 -37 c-13 -21 -70 -110 -126 -198 -56 -88 -125 -196 -153 -240 -28 -44 -84
-132 -125 -195 l-74 -115 -1 -177 0 -178 -122 0 -123 0 3 177 2 178 -64 100
c-85 131 -225 350 -289 450 -28 44 -73 113 -99 153 -26 41 -48 75 -48 78 0 2
65 4 144 4 128 0 144 -2 150 -17z"/>
<path d="M3809 8576 c-78 -32 -112 -58 -152 -118 -109 -165 -94 -399 35 -526
70 -69 128 -94 232 -99 60 -3 101 -1 121 8 17 6 36 13 44 15 28 6 107 67 139
108 50 66 73 146 74 251 0 186 -84 314 -241 370 -67 23 -184 19 -252 -9z"/>
<path d="M2388 8594 c-5 -4 -8 -88 -8 -187 l0 -179 138 4 c150 4 174 12 227
68 28 29 30 36 30 109 0 66 -4 83 -25 113 -39 58 -77 71 -225 76 -71 2 -133 1
-137 -4z"/>
<path d="M4634 8587 c-2 -7 -3 -91 -2 -187 l3 -175 113 -3 c62 -1 130 2 152 8
49 13 99 54 116 97 27 63 13 161 -28 214 -19 23 -77 51 -94 45 -8 -3 -14 -1
-14 4 0 16 -240 13 -246 -3z"/>
<path d="M2630 7000 l0 -160 300 0 c281 0 303 1 343 20 61 30 81 62 85 140 3
56 1 69 -19 94 -49 62 -72 66 -406 66 l-303 0 0 -160z"/>
<path d="M8053 7038 c-17 -40 -60 -137 -96 -215 l-66 -143 199 0 200 0 -9 23
c-5 12 -26 58 -46 102 -21 44 -57 125 -82 180 -63 141 -64 141 -100 53z"/>
</g>
</svg>
